<svg width="50" height="50" viewBox="0 0 50 50" fill="none" xmlns="http://www.w3.org/2000/svg">
<circle cx="25" cy="25" r="25" fill="#E8E5E9"/>
<path d="M15.696 28.895C15.8371 28.6835 16.1192 28.5424 16.4014 28.6128C16.754 28.6832 17.1068 28.7187 17.4594 28.7187C21.0213 28.7187 23.9486 25.827 23.9486 22.2295C23.9486 20.0077 22.8199 17.9621 20.9157 16.7631C20.6688 16.622 20.5632 16.3398 20.5984 16.0932C20.6336 15.811 20.8098 15.5995 21.092 15.4936C22.0796 15.1763 23.1376 15 24.1955 15C29.5913 15 34 19.4084 34 24.8045C34 30.2002 29.5916 34.6089 24.1955 34.6089C20.7042 34.6089 17.4597 32.7396 15.6965 29.7068C15.5199 29.4247 15.5199 29.107 15.6962 28.8955L15.696 28.895Z" fill="black"/>
</svg>
