<svg width="50" height="50" viewBox="0 0 50 50" fill="none" xmlns="http://www.w3.org/2000/svg">
<circle cx="25" cy="25" r="25" fill="#1F2022"/>
<path fill-rule="evenodd" clip-rule="evenodd" d="M17.1037 15.4826C16.8726 15.4831 16.6647 15.6235 16.5783 15.838C16.4919 16.0525 16.5439 16.2979 16.7101 16.4585L19.5385 19.2743C19.6443 19.3844 19.7899 19.4471 19.9428 19.4485C20.0955 19.4497 20.2423 19.3895 20.35 19.2811C20.4579 19.1729 20.5174 19.0259 20.5152 18.873C20.5134 18.7203 20.4499 18.5749 20.3392 18.4696L17.5112 15.6538C17.404 15.5439 17.257 15.4821 17.1036 15.4826L17.1037 15.4826Z" fill="white"/>
<path fill-rule="evenodd" clip-rule="evenodd" d="M31.1564 29.5559C30.9253 29.5555 30.7169 29.6952 30.6296 29.9095C30.5425 30.1235 30.5935 30.3691 30.7591 30.5304L33.632 33.4129H33.6322C33.7376 33.5234 33.8829 33.5869 34.0358 33.5888C34.1885 33.5906 34.3355 33.5309 34.4437 33.4232C34.5518 33.3153 34.612 33.1685 34.6106 33.0156C34.6092 32.8629 34.5462 32.7173 34.4359 32.6115L31.5633 29.7289H31.5635C31.4568 29.6186 31.31 29.5561 31.1564 29.5559L31.1564 29.5559Z" fill="white"/>
<path fill-rule="evenodd" clip-rule="evenodd" d="M25.4969 12.0001C25.1834 12.0047 24.9332 12.2623 24.9376 12.5758V16.5761C24.9346 16.7288 24.9929 16.8763 25.0996 16.9854C25.2064 17.0945 25.3527 17.1558 25.5053 17.1558C25.658 17.1558 25.8041 17.0945 25.9111 16.9854C26.0178 16.8763 26.0761 16.7288 26.0728 16.5761V12.5758C26.0752 12.4225 26.015 12.2745 25.9066 12.1661C25.798 12.0577 25.6503 11.9977 25.4969 12.0001V12.0001Z" fill="white"/>
<path fill-rule="evenodd" clip-rule="evenodd" d="M25.4969 31.8552C25.1834 31.8601 24.9332 32.1177 24.9376 32.4312V36.4203C24.9346 36.5729 24.9929 36.7202 25.0996 36.8293C25.2064 36.9384 25.3527 37 25.5053 37C25.658 37 25.8041 36.9384 25.9111 36.8293C26.0178 36.7202 26.0761 36.5729 26.0728 36.4203V32.4312C26.0752 32.2779 26.015 32.1299 25.9066 32.0215C25.798 31.9131 25.6503 31.8531 25.4969 31.8552V31.8552Z" fill="white"/>
<path fill-rule="evenodd" clip-rule="evenodd" d="M19.8809 29.5337C19.7334 29.5387 19.5936 29.6007 19.4911 29.707L16.6522 32.5673C16.5443 32.6738 16.4834 32.819 16.4832 32.9707C16.4829 33.1222 16.5433 33.2676 16.651 33.3744C16.7585 33.4811 16.9043 33.5406 17.056 33.5392C17.2075 33.5378 17.3522 33.476 17.458 33.3673L20.2969 30.5071V30.5068C20.4643 30.3432 20.5137 30.0933 20.4217 29.8779C20.3297 29.6628 20.1148 29.526 19.8809 29.5338V29.5337Z" fill="white"/>
<path fill-rule="evenodd" clip-rule="evenodd" d="M33.9869 15.4107C33.8397 15.4156 33.6997 15.4776 33.5974 15.5839L30.7135 18.4892C30.6058 18.5957 30.5452 18.7408 30.5452 18.8923C30.5449 19.0438 30.6053 19.189 30.7128 19.2958C30.8203 19.4023 30.9661 19.4618 31.1174 19.4604C31.2688 19.4592 31.4135 19.3976 31.5193 19.2892L34.4032 16.384V16.3837C34.5704 16.2201 34.62 15.9703 34.528 15.7549C34.436 15.5397 34.2211 15.4029 33.9869 15.4107V15.4107Z" fill="white"/>
<path fill-rule="evenodd" clip-rule="evenodd" d="M13.579 23.9306C13.4266 23.9275 13.2791 23.986 13.1702 24.0928C13.0613 24.1996 13 24.3457 13 24.4983C13 24.6508 13.0613 24.7969 13.1702 24.9036C13.2791 25.0106 13.4266 25.0689 13.579 25.0659H17.5695C17.7219 25.0689 17.8694 25.0106 17.9783 24.9036C18.0871 24.7969 18.1487 24.6508 18.1487 24.4983C18.1487 24.3457 18.0871 24.1996 17.9783 24.0928C17.8694 23.986 17.7219 23.9275 17.5695 23.9306H13.579Z" fill="white"/>
<path fill-rule="evenodd" clip-rule="evenodd" d="M33.4418 23.9306C33.2894 23.9275 33.1419 23.986 33.033 24.0928C32.9241 24.1996 32.8628 24.3457 32.8628 24.4983C32.8628 24.6508 32.9241 24.7969 33.033 24.9036C33.1419 25.0106 33.2894 25.0689 33.4418 25.0659H37.4211C37.5735 25.0689 37.7208 25.0106 37.8299 24.9036C37.9387 24.7969 38.0001 24.6508 38.0001 24.4983C38.0001 24.3457 37.9387 24.1996 37.8299 24.0928C37.7208 23.986 37.5735 23.9275 37.4211 23.9306H33.4418Z" fill="white"/>
<path fill-rule="evenodd" clip-rule="evenodd" d="M25.5051 19.3559C28.3501 19.3559 30.6494 21.6545 30.6494 24.4979C30.6494 27.3538 28.3501 29.6511 25.5051 29.6511C22.648 29.6511 20.3499 27.3535 20.3499 24.4979C20.3499 21.6545 22.648 19.3559 25.5051 19.3559V19.3559Z" fill="white"/>
</svg>
